<?xml version="1.0" encoding="utf-8"?>
<!-- Generator: Adobe Illustrator 18.0.0, SVG Export Plug-In . SVG Version: 6.00 Build 0)  -->
<!DOCTYPE svg PUBLIC "-//W3C//DTD SVG 1.1//EN" "http://www.w3.org/Graphics/SVG/1.1/DTD/svg11.dtd">
<svg version="1.1" xmlns="http://www.w3.org/2000/svg" xmlns:xlink="http://www.w3.org/1999/xlink" x="0px" y="0px"
	 viewBox="0 0 1280 800" enable-background="new 0 0 1280 800" xml:space="preserve">
<g id="Carro">
</g>
<g id="Star">
</g>
<g id="Stargolf">
</g>
<g id="Texto">
</g>
<g id="Lineas">
	<g>
		<g>
			<path fill="#221F1B" d="M696.6,413.6c-0.8,4.8,5.1,12.1,8.2,15.1c2.6,2.6,3,2.9,5.9,2.6c3.1-0.4,6.8-3.1,9.8-4.1
				c6.7-2.1,13.5-3.8,20.2-5.9c13.6-4.3,25.9-4.2,39.8-5c1.8-5.5,0.1-12.5-0.4-18.2c-0.7-9.8,0-18.9-9.6-24.9
				c-7.7-4.8-18.9-5.6-27.7-4.1c-7.8,1.3-14,5-20,10c-4.2,3.5-9.5,6.7-12.9,10.9c-3,3.7-5,8-7.2,12.4
				C701,405.8,697.5,410.2,696.6,413.6z"/>
			<path fill="#E6E2DA" stroke="#2B2B2B" stroke-miterlimit="10" d="M704.4,305.3c22.6-1,37.9,11.1,52.8,26.1
				c5.8,5.9,8.8,14.3,12,21.1c-4.3,3.1-12.1,1.8-17.2,1.9c-12.5,0.5-25,0.9-37.4,1.9c-4.4,0.3-8.9,0.4-13.3,0.2
				c-1.2-3.1-0.6-7.1-0.6-10.4c0.1-7.9,0.1-16,1.4-23.8C703.1,316.9,703.5,311.6,704.4,305.3z"/>
			<path fill="#383530" d="M432.4,350.9c2.4,39.7,1.8,27.4,2.4,39.7c0.3,7.8,0.3,29,10.2,31.6c7.4,1.9,12.9-11.2,14.9-15.9
				c2.4-5.7,3.2-10.8,9.2-13.7c18.8-8.9,37.3,3.2,42.4,22.2c2,7.6,6.4,11.5,14.7,11.8c21.8,0.7,0,0,65.2-1.4
				c12.2-0.3,87.9-3.4,96.6-6.4c6.3-2.2,11.7-9.8,14.6-15.8c4.9-9.9,13.7-18.2,24.5-22.4c8.2-3.2,20.5-6.2,29.6-4.9
				c3.7,0.5,9.1,3.2,12.6,1.3c3.6-2,2.6-6,2.6-9.5c0-3.2,1.1-8.8,0-11.8c-1.6-4.3-8.5-5.5-12.8-6.4c-11.8-2.6-23.5-3.4-35.5-4
				c-8-0.4-16.2-0.5-24.2-0.2c-4.9,0.2-5.4,0.9-8,5.5c-5.6,9.9-8.2,20.9-12.3,31.4c-1.6,4.2-3.7,8.3-5.1,12.6
				c-1,3.1-1.2,7.1-3.1,9.7c-6.4-0.3-12.9-2-19.2-2.7c-14.7-1.7-29.4-2.8-44.1-4c-17.9-1.5-36.3-3.4-54.3-4.1
				c-2.5-5.9-1.5-14.4-2.4-20.9c-1.3-8.9-2.1-20.8-7.4-28.6c-8.9-13.1-33.2-13.2-46.8-12c-11.3,1-22.6,3-33.8,4.9
				c-7.8,1.3-16,0.5-23.6,2.3C434.3,340.5,430.8,344.2,432.4,350.9z"/>
			<path fill="#54504A" d="M679.9,302.4c1.2,1.2,2.6,2.7,3.6,4c-1,1.2-2.5,2-3.7,3c-0.8-1-2.4-1.8-2.9-3c-0.4-0.9,0.2-1,1-1.6
				C678.7,304.3,679.2,303.9,679.9,302.4z"/>
			<path fill="#383530" d="M683.3,305.3c-1.2,0.8-2.4,2.2-3.5,3.1c-0.2,0.2-1.1,1-1.1,1.4c-0.1,0.9,1.4,2,2,2.6
				c2.3,2.2,4.4,4.2,6.4,6.7c1.1,1.4,6.5,6.2,7.6,7.5c0.9,1.1-2.7-1.3-1.5-0.5c1.6-1.2,1.9-3.9,2.5-5.6c0.4-1.1,0.8-2.2,1.3-3.1
				c0.1-0.2,0.5-0.6,0.5-0.8c0.1-0.8,2,2,1.6,1.3c-1.4-2.2-5-5.3-6.9-7.1C691.7,310.1,683.3,305.3,683.3,305.3z"/>
			<path fill="#54504A" d="M541.8,386.3c0,8.8,4.2,27.7,10.6,29.1c11.4,2.5,24.1,0.5,35.6,0c20.4-0.8,41-1.7,61.4-3.2
				c5.7-0.4,11.4-1.3,17-1.7c5-0.4,14.8-1.8,19.6-3.6c9-3.4,0,0,9.3-40.7c2.8-12.3,5.3-24,7.5-36.6c3.9-21.4,4.5-15.4,3.9-21.4
				c-0.5-5.2-13.9-12.3-16.1-6.2c-1.5,4.4,2.3,7.9,2.6,11.3c0.6,6.8-3.6,17.7-5.1,24.2c-10,46.7,0,0-9.7,45.4
				c-29.2,3.5-59.4-0.4-88.8,0.1c-9.8,0.2-20.2,0.1-29.9,1.9C553.6,386.1,549.2,378.3,541.8,386.3z"/>
			<path fill="#E6E2DA" stroke="#333333" stroke-miterlimit="10" d="M434.8,326c-4.5,3.3-4.9,19.6-2.6,24.8
				c3.1,6.9,12.5,7.7,18.6,7.4c27.4-1.5,35.5-4.5,59.2-2.1c13.5,1.4,26.1,16.9,29.6,26.6c2.7,7.4,6.3,19.1,9,26.7
				c0,0,73.3-2.1,80.9-3.1c1.5-15.4-2.8-39.3-3.2-54.7c-0.2-10.1-0.2-10.1-2.4-31.3c-0.2-2-1.1-5.1-2.4-6.4
				c-3.1-2.9-15.9-1.5-19.7-1.5c-14.7,0-112.2,5.5-124.9,7.4C465.3,321.5,446,324.2,434.8,326"/>
			<path fill="#4C4743" d="M512.7,322.5c0.9-0.1,1.7-0.1,2.3-0.2c2.6-0.1,7-0.2,12-0.2c35.9-0.3,43.9-1.6,45.1-6.9
				c0.8-3.4-1.6-7-4.3-10.8l-0.5-0.7c-3-4.3-7.9-10.1-13.9-13.4c-4.7-2.5-10.1-3.2-15-3.7c-10.9-1.2-21.9-1.8-32.6-2.3
				c-4.2-0.2-8.3-0.4-12.5-0.6l-3.1-0.2l-0.7,3.1c-1.8,8.4-4,23.8,2.2,32.1c2.5,3.4,7.4,4.3,13.2,4.3
				C507.4,322.9,510,322.7,512.7,322.5z M505.5,291.6c10.6,0.5,21.5,1,32.2,2.2c4.3,0.5,8.8,1,12.2,2.9c3.7,2,7.8,6,11.4,11.2
				l0.5,0.8c1.3,1.8,2.2,3.2,2.7,4.2c-6.1,1.8-27,1.9-37.5,2c-5.1,0-9.6,0.1-12.3,0.2c-0.7,0-1.6,0.1-2.5,0.2
				c-10.7,0.8-13.8-0.1-14.4-1c-2.9-3.9-3.5-12.5-1.5-23.1C499.2,291.3,502.4,291.4,505.5,291.6z"/>
			<g>
				<path fill="#383530" d="M483.5,183c0,31.7,0.7,60.6,3.6,91.9c0.9,9.4,0.2,21.7,1.1,31.1c0.4,4.2-0.2,13.7,1,17.4
					c5.4,0.4,12.2-0.4,17.6-0.9c0.5-9.6-3-65.9-3.7-83c-0.9-21.4-1.5-42.7-1.7-64.2C494.4,175,487.6,179,483.5,183z"/>
				<path fill="#383530" d="M431.6,288.4c21.2-0.2,42.4-1.2,63.5-1.1c3.1,8.8,9.8,16.4,10.6,25.7c0.2,2.8-4.3,8.5-2.5,10.9
					c-14,0.4-28.1,1-44.1,1.4c-6.1,0.2-12.2,0.5-18.3,0.7c-1.3,0-4.8,0.5-5.8,0.1c-2.3-1-3.6-29.3-5.1-35.9
					C429.9,289.3,430.2,288.4,431.6,288.4z"/>
			</g>
			<path fill="#221F1B" d="M453.7,431.5c-3.6-3.9-10.8-7.8-13.1-12.6c-2.1-4.3,0.7-12.5,2.1-16.8c2.8-9.3,5.9-19.6,14.4-25.1
				c15-9.8,41.8-12.3,57.5-3c7.5,4.4,12.1,12.3,15.8,19.8c4.9,10.3,6.7,20.7,6.6,32.1c-14.5,4.8-30.2,8.6-45.4,10.7
				c-8,1.1-21,4.4-28.6,0.1C460.3,435.1,458.7,432.5,453.7,431.5z"/>
			<g>
				<path fill="#413D36" d="M520.7,394.2c29.6,40.7-15.8,85.8-56.7,56.4c-0.8-0.6-1.5-1.3-2.1-2.1c-29.6-40.7,15.8-85.8,56.7-56.4
					C519.4,392.6,520.2,393.4,520.7,394.2z"/>
				<path fill="#EFEFEF" d="M508.5,405.5c17.2,23.7-9.2,50-33,32.8c-0.5-0.4-0.9-0.8-1.3-1.3c-17.2-23.7,9.2-50,33-32.8
					C507.7,404.6,508.2,405,508.5,405.5z"/>
			</g>
			<g>
				<path fill="#413D36" d="M771.8,394.2c29.6,40.7-15.8,85.8-56.7,56.4c-0.8-0.6-1.5-1.3-2.1-2.1c-29.6-40.7,15.8-85.8,56.7-56.4
					C770.5,392.7,771.2,393.4,771.8,394.2z"/>
				<path fill="#EFEFEF" d="M759.6,405.5c17.2,23.7-9.2,50-33,32.8c-0.5-0.4-0.9-0.8-1.3-1.3c-17.2-23.7,9.2-50,33-32.8
					C758.8,404.6,759.2,405,759.6,405.5z"/>
			</g>
			<path fill="#383530" d="M712.7,282.8c-4-10.1-36.1-98-37-105.8c-0.2-2,1.2-3.8,3.3-4c2-0.2,3.8,1.2,4.1,3.2
				c0.8,7.2,3.1,15.7,6.8,25.1c2.2,5.6,4.2,11.3,6,16.9c2.5,7.2-3.1-7,0,0c5.7,13.1,18.9,48.1,23.8,62.2c0.7,1.9,1.4,3.7,2.1,5.6
				c2,5.1,4.1,10.3,4.6,16.2c0.3,3.6,0.2,7.3,0.1,10.9c-0.1,1.7-0.1,3.5-0.1,5.2c0,2-1.7,3.7-3.7,3.7c-2,0-3.7-1.6-3.7-3.7
				c0-1.8,0.1-3.6,0.1-5.4c0.1-3.4,0.2-6.8-0.1-10c-0.4-4.8-2.2-9.3-4.1-14.1C714.2,286.8,713.4,284.8,712.7,282.8"/>
			<path fill="#E6E2DA" stroke="#383838" stroke-miterlimit="10" d="M721,152.9c5,1.9,21.7,23.3,21.3,27.8
				c-64.9,0-139.7,4.2-204.5,5.6c-36.2,0.8-72.7,2.8-108.4,3.9c-1.2-9.4,11-18,11.6-27.2C449.3,161.4,714.7,150.4,721,152.9z"/>
			<path fill="#4F4B45" d="M680.3,289.4c0,1.7-0.4,3.4-0.5,5.1c0,2.3,0,4.6,0.1,6.9c0,0.5,0.1,1,0.1,1.5c-0.1,0.7-0.7,1.4-1.2,2
				c-0.5,0.6-1.3,1.3-2,1.7c-0.4,0.2-1.1,0.1-1.6,0.1c-1.9,0-3.8-0.1-5.7-0.1c-2,0-4.1,0-6.1,0c-1,0-1.8,0-2.7-0.1
				c-0.4-0.1-0.8-0.2-1.1-0.2c1.2-0.7,2.4-1.3,3.5-2.3c2.2-1.8,4-4.1,6.2-5.8c1.2-1,2.5-1.8,3.6-2.9c0.9-0.9,1.7-1.9,2.6-2.9
				c0.5-0.6,1.1-1.1,1.6-1.7c0.4-0.5,0.7-1.1,1.1-1.4c0.5-0.4,1.3-0.7,1.9-0.8"/>
			<path fill="#383530" d="M672.4,285.3c-3.2,1.4-20.9,19.4-18.8,22.8c1.8,2.8,13.4-5.4,14.9-6.5c4.8-3.5,12.4-9.8,12.8-16.3
				C681.7,280.1,677.1,281.5,672.4,285.3z"/>
			<ellipse fill="#3D3D3D" cx="742.3" cy="421.4" rx="5.2" ry="5.3"/>
			<ellipse fill="#3D3D3D" cx="491.6" cy="421.4" rx="5.2" ry="5.3"/>
		</g>
		<path fill="#F8BF0A" d="M585,514L585,514l-48.4,93.3l0,0l-93.7-161.2l0,0l0,0l0,0l-224.4,7.5l0,0c46-27.1,42-25.1,47.9-28.1
			c60.2-30.9,66.7-33.7,117.1-56.3c20.6-9.9,22.2-10.3,22.2-10.3L257.3,152.1l0,0l76.2,187.5l0,0C295.1,360.2,78.4,487.2,78.4,487.2
			s25.8-15.1,0,0l0,0c0,0,30.4,0.6,24.7,0.5c-24.7-0.5-25.8-0.5-22.8-0.5c85.7,1,237.1,3.1,322.8,1.8c0,0,4.6,11.2,14,33.8
			c26.7,64.5,74.9,155.8,103.2,219.7l0,0c29.1-71.1,65.2-156.8,93.8-227c0,0,0,0,0,0"/>
		<g>
			<path fill="#2D2D2D" d="M781.5,206.2v27.1h-2.1c-0.7-5.2-1.9-9.3-3.7-12.4c-1.8-3.1-4.3-5.5-7.6-7.3c-3.3-1.8-6.7-2.7-10.3-2.7
				c-4,0-7.3,1.2-9.9,3.7c-2.6,2.4-3.9,5.2-3.9,8.3c0,2.4,0.8,4.6,2.5,6.5c2.4,2.9,8.1,6.7,17,11.5c7.3,3.9,12.3,6.9,15,9
				c2.7,2.1,4.7,4.6,6.2,7.4c1.4,2.8,2.2,5.8,2.2,8.9c0,5.9-2.3,11-6.9,15.3c-4.6,4.3-10.5,6.4-17.7,6.4c-2.3,0-4.4-0.2-6.4-0.5
				c-1.2-0.2-3.7-0.9-7.4-2.1c-3.7-1.2-6.1-1.8-7.1-1.8c-1,0-1.7,0.3-2.3,0.9c-0.6,0.6-1,1.8-1.2,3.6h-2.1v-26.8h2.1
				c1,5.6,2.3,9.8,4,12.6c1.7,2.8,4.3,5.1,7.8,7c3.5,1.8,7.3,2.8,11.5,2.8c4.8,0,8.6-1.3,11.4-3.8s4.2-5.5,4.2-9
				c0-1.9-0.5-3.9-1.6-5.8c-1.1-2-2.7-3.8-4.9-5.5c-1.5-1.2-5.6-3.6-12.3-7.4c-6.7-3.7-11.5-6.7-14.3-9c-2.8-2.2-5-4.7-6.4-7.4
				c-1.5-2.7-2.2-5.7-2.2-8.9c0-5.6,2.2-10.5,6.5-14.5c4.3-4.1,9.8-6.1,16.4-6.1c4.2,0,8.6,1,13.2,3.1c2.2,1,3.7,1.4,4.6,1.4
				c1,0,1.8-0.3,2.5-0.9c0.6-0.6,1.1-1.8,1.5-3.6H781.5z"/>
			<path fill="#2D2D2D" d="M861.4,208l0.9,18.3h-2.2c-0.4-3.2-1-5.5-1.7-6.9c-1.2-2.2-2.8-3.9-4.8-4.9c-2-1.1-4.6-1.6-7.8-1.6h-11
				v59.8c0,4.8,0.5,7.8,1.6,9c1.5,1.6,3.7,2.4,6.7,2.4h2.7v2.1h-33.2v-2.1h2.8c3.3,0,5.7-1,7-3c0.8-1.2,1.3-4,1.3-8.4v-59.8h-9.4
				c-3.7,0-6.2,0.3-7.8,0.8c-2,0.7-3.7,2.1-5.1,4.2c-1.4,2.1-2.3,4.9-2.5,8.4h-2.2l0.9-18.3H861.4z"/>
			<path fill="#2D2D2D" d="M909.8,260h-30.3l-5.3,12.3c-1.3,3-2,5.3-2,6.8c0,1.2,0.6,2.2,1.7,3.1c1.1,0.9,3.6,1.5,7.4,1.8v2.1h-24.6
				v-2.1c3.3-0.6,5.4-1.3,6.3-2.2c2-1.8,4.1-5.6,6.5-11.2l27.5-64.4h2l27.2,65.1c2.2,5.2,4.2,8.6,6,10.2s4.3,2.4,7.5,2.6v2.1h-30.9
				v-2.1c3.1-0.2,5.2-0.7,6.3-1.6c1.1-0.9,1.6-2,1.6-3.2c0-1.7-0.8-4.4-2.3-8L909.8,260z M908.2,255.8l-13.3-31.6l-13.6,31.6H908.2z
				"/>
			<path fill="#2D2D2D" d="M1020.9,286.2H1000l-26.5-36.6c-2,0.1-3.6,0.1-4.8,0.1c-0.5,0-1,0-1.6,0c-0.6,0-1.2,0-1.8-0.1v22.7
				c0,4.9,0.5,8,1.6,9.2c1.5,1.7,3.7,2.5,6.6,2.5h3.1v2.1h-33.5v-2.1h2.9c3.3,0,5.7-1.1,7.1-3.2c0.8-1.2,1.2-4,1.2-8.5v-50.5
				c0-4.9-0.5-8-1.6-9.2c-1.5-1.7-3.7-2.5-6.7-2.5h-2.9V208h28.5c8.3,0,14.4,0.6,18.4,1.8c3.9,1.2,7.3,3.4,10,6.7
				c2.7,3.3,4.1,7.1,4.1,11.6c0,4.8-1.6,9-4.7,12.5c-3.1,3.5-8,6-14.6,7.5l16.2,22.4c3.7,5.2,6.9,8.6,9.5,10.3
				c2.7,1.7,6.1,2.8,10.4,3.2V286.2z M965.4,246c0.7,0,1.4,0,1.9,0c0.5,0,1,0,1.3,0c7.5,0,13.1-1.6,16.9-4.8
				c3.8-3.2,5.7-7.3,5.7-12.3c0-4.9-1.5-8.9-4.6-11.9s-7.1-4.6-12.1-4.6c-2.2,0-5.2,0.4-9.1,1.1V246z"/>
		</g>
		<g>
			<g>
				<g>
					<path fill="#1E1E1E" d="M879.1,307.8c-11.4,0-20.7,9.3-20.7,20.7c0,11.4,9.3,20.7,20.7,20.7c11.4,0,20.7-9.3,20.7-20.7
						C899.8,317,890.6,307.8,879.1,307.8z"/>
				</g>
				<radialGradient id="SVGID_1_" cx="879.1314" cy="328.4648" r="16.0096" gradientUnits="userSpaceOnUse">
					<stop  offset="0" style="stop-color:#E5E2DF"/>
					<stop  offset="0" style="stop-color:#DED9D6"/>
					<stop  offset="6.299578e-002" style="stop-color:#CFCAC9"/>
					<stop  offset="0.1833" style="stop-color:#A8A4A7"/>
					<stop  offset="0.264" style="stop-color:#8B878D"/>
					<stop  offset="0.5225" style="stop-color:#F3F4F4"/>
					<stop  offset="0.5842" style="stop-color:#E5E5E6"/>
					<stop  offset="0.7027" style="stop-color:#C0BEC0"/>
					<stop  offset="0.8647" style="stop-color:#858085"/>
					<stop  offset="0.8764" style="stop-color:#807B80"/>
					<stop  offset="1" style="stop-color:#D1D3D4"/>
					<stop  offset="1" style="stop-color:#A7A9AC"/>
				</radialGradient>
				<path fill="#E2E2E2" stroke="url(#SVGID_1_)" stroke-width="0.1865" stroke-miterlimit="10" d="M879.1,312.5
					c-8.8,0-15.9,7.1-15.9,15.9c0,8.8,7.1,15.9,15.9,15.9c8.8,0,15.9-7.1,15.9-15.9C895,319.7,887.9,312.5,879.1,312.5z
					 M890.7,320.5l0.5-0.2c2.2,3.2,2.3,6.8,2.3,6.8c-1.8,0.7-4.4-0.1-5.6-0.4c-1.2-0.3-1-1.5-1-1.5
					C887.4,323,890.7,320.5,890.7,320.5z M874.9,314.3c3.8-1.1,7.2,0,7.2,0c0,1.9-1.5,4.2-2.2,5.2c-0.7,1-1.7,0.5-1.7,0.5
					c-2-1.2-3.3-5.1-3.3-5.1V314.3z M864.4,328.3c0.1-3.9,2.1-6.9,2.1-6.9c1.9,0.5,3.6,2.6,4.4,3.6c0.8,0.9,0,1.8,0,1.8
					c-1.7,1.5-5.8,1.7-5.8,1.7L864.4,328.3z M866.9,335.5c-0.5-0.5-1.6-3-1.9-4.1c-0.3-1,1.1-1.2,1.1-1.2l5.4-1.5
					c1.9-0.8,2.7,1,2.7,1c0.9,1.9-1.4,3.3-1.4,3.3c-1.5,0.5-4,2.3-4.6,2.8C867.6,336.3,866.9,335.5,866.9,335.5z M874.5,342
					l-0.3,0.4c-3.6-1.4-5.8-4.3-5.8-4.3c1.1-1.6,3.7-2.4,4.8-2.9c1.1-0.4,1.7,0.7,1.7,0.7C875.8,338.1,874.5,342,874.5,342z
					 M876.1,324.3c-1.6,1.4-3.6-0.4-3.6-0.4c-0.9-1.3-3.3-3.2-3.9-3.7c-0.6-0.5,0-1.3,0-1.3c0.3-0.7,2.5-2.4,3.4-2.9
					c0.9-0.6,1.5,0.7,1.5,0.7l2.9,4.8C877.7,323.1,876.1,324.3,876.1,324.3z M882.1,342.7c-0.7,0.3-3.4,0.3-4.5,0.2
					c-1.1-0.1-0.7-1.5-0.7-1.5l0.8-5.5c0.1-2.1,2-2,2-2c2.1-0.1,2.5,2.6,2.5,2.6c-0.1,1.6,0.6,4.6,0.7,5.3
					C883.1,342.4,882.1,342.7,882.1,342.7z M882.3,324.2c-1.8-1.1-0.7-3.5-0.7-3.5c1-1.2,2-4.1,2.3-4.9c0.3-0.7,1.3-0.4,1.3-0.4
					c0.7,0.1,3,1.6,3.8,2.3c0.8,0.7-0.2,1.6-0.2,1.6l-3.6,4.2C883.9,325.3,882.3,324.2,882.3,324.2z M885.2,342.1
					c-1.2-1.5-1.4-4.2-1.5-5.4c-0.1-1.2,1.1-1.4,1.1-1.4c2.3-0.2,5.7,2.1,5.7,2.1l0.3,0.4C888.6,340.9,885.2,342.1,885.2,342.1z
					 M892.1,334.8c-0.5,1-1.6,0.2-1.6,0.2l-5-2.4c-2-0.7-1.3-2.5-1.3-2.5c0.5-2,3.2-1.6,3.2-1.6c1.5,0.6,4.5,0.9,5.3,0.9
					c0.8,0.1,0.7,1.1,0.7,1.1C893.4,331.2,892.5,333.8,892.1,334.8z M881.5,328.8c0,1.3-1,2.3-2.3,2.3c-1.3,0-2.3-1-2.3-2.3
					c0-1.3,1-2.3,2.3-2.3C880.4,326.5,881.5,327.5,881.5,328.8z"/>
				<g>
					<g>
						<g>
							<circle fill="#1B1A1C" cx="882.7" cy="327.4" r="1"/>
							<circle fill="#C1C1C1" cx="882.7" cy="327.4" r="0.7"/>
						</g>
						<g>
							<circle fill="#1B1A1C" cx="879" cy="324.9" r="1"/>
							<circle fill="#C1C1C1" cx="879" cy="324.9" r="0.7"/>
						</g>
						<g>
							<circle fill="#1B1A1C" cx="875.5" cy="327.7" r="1"/>
							<circle fill="#C1C1C1" cx="875.5" cy="327.7" r="0.7"/>
						</g>
						<g>
							<circle fill="#1B1A1C" cx="877.3" cy="332" r="1"/>
							<circle fill="#C1C1C1" cx="877.3" cy="332" r="0.7"/>
						</g>
						<g>
							<circle fill="#1B1A1C" cx="881.7" cy="332" r="1"/>
							<circle fill="#C1C1C1" cx="881.7" cy="332" r="0.7"/>
						</g>
					</g>
					<circle fill="#DDDDDD" cx="879.1" cy="328.8" r="1.7"/>
				</g>
			</g>
			<g>
				<path fill="#3F3F3F" d="M928.7,345.5c0.5,2.5-1.3,3.7-3.7,4.1c-2.8,0.4-6.5-1.8-6.9-3.6c0,0,0-0.1,0-0.1c-0.1-0.9,0.5-1.5,2.6-2
					c0,0,0,0,0,0c0.3-0.1,0.7-0.1,1.1-0.2l0.2,0c0.2,0,0.5-0.1,0.7-0.1C926.8,342.7,928.1,342.5,928.7,345.5z"/>
				<path fill="#3F3F3F" d="M921.8,343.6c-0.4,0.1-0.7,0.1-1.1,0.2c0,0,0,0,0,0c-2.1,0.5-2.8,1-2.6,2l-2.1-9l-0.3-1.1l-4.1-17.5
					l-4.8-20.2l0-0.2c-0.1-0.4,0.2-0.8,0.7-0.9c0.5-0.1,0.9,0.2,1,0.6l9.2,39l1,4.1l0,0.1c0,0.1,0.1,0.3,0.1,0.4l0,0.1
					C919.1,342.1,919.8,343.9,921.8,343.6z"/>
				<polygon fill="#899CAD" points="915.7,335.6 917.4,335.3 917.7,336.4 916,336.7 				"/>
				<path fill="#D1D1D1" d="M911.2,317.7c0.1,0.3,0.3,0.4,0.6,0.4l1.3-0.3c0.3-0.1,0.5-0.3,0.4-0.6l-4.5-19.3
					c-0.1-0.3-0.3-0.4-0.6-0.4l-1.3,0.3c-0.3,0.1-0.5,0.3-0.4,0.6L911.2,317.7z"/>
			</g>
			<path fill="#2D2D2D" d="M844.8,307.3l1,12.5h-1c-1-3.1-2.4-5.4-4-7c-2.4-2.3-5.4-3.4-9.1-3.4c-5,0-8.9,2-11.5,6
				c-2.2,3.4-3.3,7.4-3.3,12c0,3.8,0.7,7.2,2.2,10.3c1.5,3.1,3.4,5.4,5.7,6.8c2.4,1.4,4.8,2.2,7.3,2.2c1.5,0,2.9-0.2,4.2-0.6
				c1.4-0.4,2.7-0.9,3.9-1.6V333c0-2-0.2-3.3-0.5-3.9c-0.3-0.6-0.8-1.1-1.4-1.4c-0.6-0.3-1.7-0.5-3.3-0.5v-1.1h15.3v1.1h-0.7
				c-1.5,0-2.6,0.5-3.1,1.5c-0.4,0.7-0.6,2.1-0.6,4.3v12.1c-2.2,1.2-4.4,2.1-6.6,2.7c-2.2,0.6-4.6,0.8-7.3,0.8
				c-7.6,0-13.4-2.4-17.4-7.3c-3-3.7-4.5-7.9-4.5-12.7c0-3.5,0.8-6.8,2.5-10c2-3.8,4.7-6.7,8.2-8.7c2.9-1.7,6.3-2.5,10.3-2.5
				c1.4,0,2.7,0.1,3.9,0.3c1.2,0.2,2.8,0.7,5,1.5c1.1,0.4,1.8,0.6,2.2,0.6c0.4,0,0.7-0.2,0.9-0.5c0.3-0.3,0.4-1,0.5-2H844.8z"/>
			<path fill="#2D2D2D" d="M949.2,312.2v15.5h7.2c1.6,0,2.9-0.4,3.6-1.1c0.8-0.7,1.3-2.2,1.5-4.3h1.1v13.4h-1.1
				c0-1.5-0.2-2.7-0.6-3.4c-0.4-0.7-0.9-1.3-1.6-1.6c-0.7-0.4-1.7-0.5-3-0.5h-7.2v12.4c0,2,0.1,3.3,0.4,4c0.2,0.5,0.6,0.9,1.2,1.3
				c0.9,0.5,1.7,0.7,2.7,0.7h1.4v1.1h-17v-1.1h1.4c1.6,0,2.8-0.5,3.6-1.4c0.5-0.6,0.7-2.1,0.7-4.5V317c0-2-0.1-3.3-0.4-4
				c-0.2-0.5-0.6-0.9-1.2-1.3c-0.8-0.5-1.7-0.7-2.7-0.7H938V310h29.4l0.4,8.7h-1c-0.5-1.8-1.1-3.2-1.8-4.1c-0.7-0.9-1.5-1.5-2.5-1.9
				c-1-0.4-2.5-0.6-4.6-0.6H949.2z"/>
		</g>
		<g>
			<path fill="#2D2D2D" d="M638.8,513.4l0.2,4.1h-0.5c-0.1-0.7-0.2-1.2-0.4-1.5c-0.3-0.5-0.6-0.9-1.1-1.1c-0.4-0.2-1-0.4-1.7-0.4
				h-2.5v13.3c0,1.1,0.1,1.7,0.3,2c0.3,0.4,0.8,0.5,1.5,0.5h0.6v0.5h-7.4v-0.5h0.6c0.7,0,1.3-0.2,1.6-0.7c0.2-0.3,0.3-0.9,0.3-1.9
				v-13.3h-2.1c-0.8,0-1.4,0.1-1.7,0.2c-0.4,0.2-0.8,0.5-1.1,0.9s-0.5,1.1-0.6,1.9h-0.5l0.2-4.1H638.8z"/>
			<path fill="#2D2D2D" d="M648.8,513c2.3,0,4.2,0.9,5.9,2.6c1.7,1.7,2.5,3.9,2.5,6.4c0,2.6-0.8,4.8-2.5,6.6s-3.7,2.6-6.1,2.6
				c-2.4,0-4.4-0.9-6-2.6c-1.6-1.7-2.4-3.9-2.4-6.6c0-2.8,0.9-5,2.8-6.8C644.6,513.8,646.5,513,648.8,513z M648.5,513.9
				c-1.6,0-2.8,0.6-3.7,1.7c-1.2,1.4-1.8,3.5-1.8,6.3c0,2.8,0.6,5,1.8,6.6c0.9,1.2,2.2,1.7,3.7,1.7c1.6,0,3-0.6,4.1-1.9
				c1.1-1.3,1.6-3.3,1.6-6c0-3-0.6-5.2-1.8-6.7C651.5,514.5,650.2,513.9,648.5,513.9z"/>
			<path fill="#2D2D2D" d="M658.6,530.8v-0.5h0.7c0.7,0,1.3-0.2,1.6-0.7c0.2-0.3,0.3-0.9,0.3-1.9v-11.2c0-1.1-0.1-1.8-0.4-2
				c-0.3-0.4-0.8-0.6-1.5-0.6h-0.7v-0.5h7.1c2.6,0,4.6,0.3,5.9,0.9c1.4,0.6,2.4,1.6,3.3,3c0.8,1.4,1.2,3,1.2,4.8
				c0,2.4-0.7,4.4-2.2,6.1c-1.7,1.8-4.2,2.7-7.5,2.7H658.6z M663.6,529.5c1.1,0.2,2,0.4,2.7,0.4c2,0,3.6-0.7,4.9-2.1
				c1.3-1.4,2-3.3,2-5.7c0-2.4-0.7-4.3-2-5.7c-1.3-1.4-3-2.1-5-2.1c-0.8,0-1.6,0.1-2.6,0.4V529.5z"/>
			<path fill="#2D2D2D" d="M686.8,513c2.3,0,4.2,0.9,5.9,2.6c1.7,1.7,2.5,3.9,2.5,6.4c0,2.6-0.8,4.8-2.5,6.6
				c-1.7,1.7-3.7,2.6-6.1,2.6c-2.4,0-4.4-0.9-6-2.6c-1.6-1.7-2.4-3.9-2.4-6.6c0-2.8,0.9-5,2.8-6.8C682.5,513.8,684.5,513,686.8,513z
				 M686.5,513.9c-1.6,0-2.8,0.6-3.7,1.7c-1.2,1.4-1.8,3.5-1.8,6.3c0,2.8,0.6,5,1.8,6.6c0.9,1.2,2.2,1.7,3.7,1.7
				c1.6,0,3-0.6,4.1-1.9c1.1-1.3,1.6-3.3,1.6-6c0-3-0.6-5.2-1.8-6.7C689.5,514.5,688.2,513.9,686.5,513.9z"/>
			<path fill="#2D2D2D" d="M708.1,522.7v5.1c0,1.1,0.1,1.8,0.4,2c0.3,0.4,0.8,0.6,1.5,0.6h0.7v0.5h-7.5v-0.5h0.7
				c0.7,0,1.3-0.2,1.6-0.7c0.2-0.3,0.3-0.9,0.3-1.9v-11.2c0-1.1-0.1-1.8-0.3-2c-0.3-0.4-0.8-0.6-1.5-0.6h-0.7v-0.5h6.4
				c1.6,0,2.8,0.2,3.7,0.5c0.9,0.3,1.7,0.9,2.3,1.6c0.6,0.8,0.9,1.7,0.9,2.7c0,1.4-0.5,2.6-1.4,3.5c-0.9,0.9-2.3,1.3-4,1.3
				c-0.4,0-0.9,0-1.4-0.1C709.2,522.9,708.6,522.8,708.1,522.7z M708.1,521.9c0.5,0.1,0.9,0.1,1.2,0.2c0.4,0,0.6,0.1,0.9,0.1
				c0.9,0,1.7-0.3,2.3-1c0.6-0.7,1-1.6,1-2.7c0-0.8-0.2-1.5-0.5-2.1c-0.3-0.6-0.7-1.1-1.3-1.4c-0.6-0.3-1.2-0.5-1.9-0.5
				c-0.4,0-1,0.1-1.7,0.2V521.9z"/>
			<path fill="#2D2D2D" d="M726.9,525h-6.7l-1.2,2.7c-0.3,0.7-0.4,1.2-0.4,1.5c0,0.3,0.1,0.5,0.4,0.7c0.3,0.2,0.8,0.3,1.6,0.4v0.5
				h-5.5v-0.5c0.7-0.1,1.2-0.3,1.4-0.5c0.4-0.4,0.9-1.2,1.5-2.5l6.1-14.3h0.4l6.1,14.5c0.5,1.2,0.9,1.9,1.3,2.3
				c0.4,0.3,1,0.5,1.7,0.6v0.5h-6.9v-0.5c0.7,0,1.2-0.1,1.4-0.3c0.2-0.2,0.4-0.4,0.4-0.7c0-0.4-0.2-1-0.5-1.8L726.9,525z M726.6,524
				l-3-7l-3,7H726.6z"/>
			<path fill="#2D2D2D" d="M751.7,530.8H747l-5.9-8.1c-0.4,0-0.8,0-1.1,0c-0.1,0-0.2,0-0.4,0c-0.1,0-0.3,0-0.4,0v5.1
				c0,1.1,0.1,1.8,0.4,2c0.3,0.4,0.8,0.6,1.5,0.6h0.7v0.5h-7.5v-0.5h0.7c0.7,0,1.3-0.2,1.6-0.7c0.2-0.3,0.3-0.9,0.3-1.9v-11.2
				c0-1.1-0.1-1.8-0.4-2c-0.3-0.4-0.8-0.6-1.5-0.6h-0.7v-0.5h6.3c1.8,0,3.2,0.1,4.1,0.4c0.9,0.3,1.6,0.8,2.2,1.5
				c0.6,0.7,0.9,1.6,0.9,2.6c0,1.1-0.3,2-1,2.8c-0.7,0.8-1.8,1.3-3.2,1.7l3.6,5c0.8,1.1,1.5,1.9,2.1,2.3c0.6,0.4,1.4,0.6,2.3,0.7
				V530.8z M739.3,521.9c0.2,0,0.3,0,0.4,0c0.1,0,0.2,0,0.3,0c1.7,0,2.9-0.4,3.8-1.1c0.8-0.7,1.3-1.6,1.3-2.7c0-1.1-0.3-2-1-2.7
				c-0.7-0.7-1.6-1-2.7-1c-0.5,0-1.2,0.1-2,0.2V521.9z"/>
			<path fill="#2D2D2D" d="M763.5,525h-6.7l-1.2,2.7c-0.3,0.7-0.4,1.2-0.4,1.5c0,0.3,0.1,0.5,0.4,0.7c0.3,0.2,0.8,0.3,1.6,0.4v0.5
				h-5.5v-0.5c0.7-0.1,1.2-0.3,1.4-0.5c0.4-0.4,0.9-1.2,1.5-2.5l6.1-14.3h0.4l6.1,14.5c0.5,1.2,0.9,1.9,1.3,2.3
				c0.4,0.3,1,0.5,1.7,0.6v0.5h-6.9v-0.5c0.7,0,1.2-0.1,1.4-0.3c0.2-0.2,0.4-0.4,0.4-0.7c0-0.4-0.2-1-0.5-1.8L763.5,525z M763.1,524
				l-3-7l-3,7H763.1z"/>
			<path fill="#2D2D2D" d="M790.3,513.4l0.2,4.1H790c-0.1-0.7-0.2-1.2-0.4-1.5c-0.3-0.5-0.6-0.9-1.1-1.1c-0.4-0.2-1-0.4-1.7-0.4
				h-2.5v13.3c0,1.1,0.1,1.7,0.3,2c0.3,0.4,0.8,0.5,1.5,0.5h0.6v0.5h-7.4v-0.5h0.6c0.7,0,1.3-0.2,1.6-0.7c0.2-0.3,0.3-0.9,0.3-1.9
				v-13.3h-2.1c-0.8,0-1.4,0.1-1.7,0.2c-0.4,0.2-0.8,0.5-1.1,0.9c-0.3,0.5-0.5,1.1-0.6,1.9h-0.5l0.2-4.1H790.3z"/>
			<path fill="#2D2D2D" d="M803.7,513.9v-0.5h6.2v0.5h-0.7c-0.7,0-1.2,0.3-1.6,0.9c-0.2,0.3-0.3,0.9-0.3,1.8v7.1
				c0,1.7-0.2,3.1-0.5,4.1c-0.3,1-1,1.8-2,2.5c-1,0.7-2.4,1-4.1,1c-1.9,0-3.3-0.3-4.3-1c-1-0.7-1.7-1.5-2.1-2.7
				c-0.3-0.8-0.4-2.2-0.4-4.3v-6.8c0-1.1-0.1-1.8-0.4-2.1c-0.3-0.3-0.8-0.5-1.4-0.5h-0.7v-0.5h7.5v0.5h-0.7c-0.7,0-1.2,0.2-1.5,0.7
				c-0.2,0.3-0.3,0.9-0.3,1.9v7.6c0,0.7,0.1,1.5,0.2,2.3c0.1,0.9,0.3,1.6,0.7,2c0.3,0.5,0.8,0.9,1.4,1.2c0.6,0.3,1.4,0.5,2.3,0.5
				c1.1,0,2.2-0.2,3.1-0.7c0.9-0.5,1.5-1.1,1.8-1.9c0.3-0.8,0.5-2.1,0.5-3.9v-7c0-1.1-0.1-1.8-0.4-2c-0.3-0.4-0.8-0.6-1.5-0.6H803.7
				z"/>
			<path fill="#2D2D2D" d="M832.5,513l0.4,5.9h-0.4c-0.5-1.8-1.3-3-2.3-3.8s-2.2-1.2-3.5-1.2c-1.2,0-2.2,0.3-3.1,0.9
				c-0.9,0.6-1.7,1.5-2.2,2.8c-0.5,1.3-0.8,2.9-0.8,4.8c0,1.6,0.3,2.9,0.8,4.1c0.5,1.2,1.3,2,2.3,2.7c1,0.6,2.2,0.9,3.5,0.9
				c1.1,0,2.1-0.2,3-0.7c0.9-0.5,1.8-1.4,2.8-2.9l0.4,0.3c-0.9,1.5-1.9,2.7-3.1,3.4c-1.2,0.7-2.5,1.1-4.1,1.1
				c-2.9,0-5.1-1.1-6.7-3.2c-1.2-1.6-1.8-3.5-1.8-5.6c0-1.7,0.4-3.3,1.2-4.8c0.8-1.5,1.9-2.6,3.2-3.4c1.4-0.8,2.9-1.2,4.5-1.2
				c1.3,0,2.5,0.3,3.7,0.9c0.4,0.2,0.6,0.3,0.8,0.3c0.2,0,0.4-0.1,0.6-0.2c0.2-0.2,0.4-0.6,0.5-1H832.5z"/>
			<path fill="#2D2D2D" d="M846.2,525h-6.7l-1.2,2.7c-0.3,0.7-0.4,1.2-0.4,1.5c0,0.3,0.1,0.5,0.4,0.7c0.3,0.2,0.8,0.3,1.6,0.4v0.5
				h-5.5v-0.5c0.7-0.1,1.2-0.3,1.4-0.5c0.4-0.4,0.9-1.2,1.5-2.5l6.1-14.3h0.4l6.1,14.5c0.5,1.2,0.9,1.9,1.3,2.3
				c0.4,0.3,1,0.5,1.7,0.6v0.5H846v-0.5c0.7,0,1.2-0.1,1.4-0.3c0.2-0.2,0.4-0.4,0.4-0.7c0-0.4-0.2-1-0.5-1.8L846.2,525z M845.9,524
				l-3-7l-3,7H845.9z"/>
			<path fill="#2D2D2D" d="M871,530.8h-4.6l-5.9-8.1c-0.4,0-0.8,0-1.1,0c-0.1,0-0.2,0-0.4,0c-0.1,0-0.3,0-0.4,0v5.1
				c0,1.1,0.1,1.8,0.4,2c0.3,0.4,0.8,0.6,1.5,0.6h0.7v0.5h-7.5v-0.5h0.7c0.7,0,1.3-0.2,1.6-0.7c0.2-0.3,0.3-0.9,0.3-1.9v-11.2
				c0-1.1-0.1-1.8-0.4-2c-0.3-0.4-0.8-0.6-1.5-0.6h-0.7v-0.5h6.3c1.8,0,3.2,0.1,4.1,0.4c0.9,0.3,1.6,0.8,2.2,1.5
				c0.6,0.7,0.9,1.6,0.9,2.6c0,1.1-0.3,2-1,2.8c-0.7,0.8-1.8,1.3-3.2,1.7l3.6,5c0.8,1.1,1.5,1.9,2.1,2.3c0.6,0.4,1.4,0.6,2.3,0.7
				V530.8z M858.6,521.9c0.2,0,0.3,0,0.4,0c0.1,0,0.2,0,0.3,0c1.7,0,2.9-0.4,3.8-1.1c0.8-0.7,1.3-1.6,1.3-2.7c0-1.1-0.3-2-1-2.7
				c-0.7-0.7-1.6-1-2.7-1c-0.5,0-1.2,0.1-2,0.2V521.9z"/>
			<path fill="#2D2D2D" d="M888.5,530.8h-4.6l-5.9-8.1c-0.4,0-0.8,0-1.1,0c-0.1,0-0.2,0-0.4,0c-0.1,0-0.3,0-0.4,0v5.1
				c0,1.1,0.1,1.8,0.4,2c0.3,0.4,0.8,0.6,1.5,0.6h0.7v0.5h-7.5v-0.5h0.7c0.7,0,1.3-0.2,1.6-0.7c0.2-0.3,0.3-0.9,0.3-1.9v-11.2
				c0-1.1-0.1-1.8-0.4-2c-0.3-0.4-0.8-0.6-1.5-0.6h-0.7v-0.5h6.3c1.8,0,3.2,0.1,4.1,0.4c0.9,0.3,1.6,0.8,2.2,1.5
				c0.6,0.7,0.9,1.6,0.9,2.6c0,1.1-0.3,2-1,2.8c-0.7,0.8-1.8,1.3-3.2,1.7l3.6,5c0.8,1.1,1.5,1.9,2.1,2.3c0.6,0.4,1.4,0.6,2.3,0.7
				V530.8z M876.1,521.9c0.2,0,0.3,0,0.4,0c0.1,0,0.2,0,0.3,0c1.7,0,2.9-0.4,3.8-1.1c0.8-0.7,1.3-1.6,1.3-2.7c0-1.1-0.3-2-1-2.7
				c-0.7-0.7-1.6-1-2.7-1c-0.5,0-1.2,0.1-2,0.2V521.9z"/>
			<path fill="#2D2D2D" d="M896.4,530.3v0.5h-7.5v-0.5h0.6c0.7,0,1.2-0.2,1.6-0.6c0.2-0.3,0.3-0.9,0.3-2v-11.2
				c0-0.9-0.1-1.5-0.2-1.7c-0.1-0.2-0.3-0.4-0.5-0.6c-0.4-0.2-0.8-0.3-1.2-0.3h-0.6v-0.5h7.5v0.5h-0.6c-0.7,0-1.2,0.2-1.6,0.6
				c-0.2,0.3-0.3,0.9-0.3,2v11.2c0,0.9,0.1,1.5,0.2,1.7c0.1,0.2,0.3,0.4,0.5,0.6c0.4,0.2,0.8,0.3,1.2,0.3H896.4z"/>
			<path fill="#2D2D2D" d="M912.2,513.4l0.2,4.1h-0.5c-0.1-0.7-0.2-1.2-0.4-1.5c-0.3-0.5-0.6-0.9-1.1-1.1c-0.4-0.2-1-0.4-1.7-0.4
				h-2.5v13.3c0,1.1,0.1,1.7,0.3,2c0.3,0.4,0.8,0.5,1.5,0.5h0.6v0.5h-7.4v-0.5h0.6c0.7,0,1.3-0.2,1.6-0.7c0.2-0.3,0.3-0.9,0.3-1.9
				v-13.3h-2.1c-0.8,0-1.4,0.1-1.7,0.2c-0.4,0.2-0.8,0.5-1.1,0.9c-0.3,0.5-0.5,1.1-0.6,1.9h-0.5l0.2-4.1H912.2z"/>
			<path fill="#2D2D2D" d="M922.2,513c2.3,0,4.2,0.9,5.9,2.6c1.7,1.7,2.5,3.9,2.5,6.4c0,2.6-0.8,4.8-2.5,6.6
				c-1.7,1.7-3.7,2.6-6.1,2.6c-2.4,0-4.4-0.9-6-2.6c-1.6-1.7-2.4-3.9-2.4-6.6c0-2.8,0.9-5,2.8-6.8C918,513.8,919.9,513,922.2,513z
				 M922,513.9c-1.6,0-2.8,0.6-3.7,1.7c-1.2,1.4-1.8,3.5-1.8,6.3c0,2.8,0.6,5,1.8,6.6c0.9,1.2,2.2,1.7,3.7,1.7c1.6,0,3-0.6,4.1-1.9
				c1.1-1.3,1.6-3.3,1.6-6c0-3-0.6-5.2-1.8-6.7C924.9,514.5,923.6,513.9,922,513.9z"/>
			<path fill="#2D2D2D" d="M938.6,530.8v-0.5h0.7c0.7,0,1.3-0.2,1.6-0.7c0.2-0.3,0.3-0.9,0.3-1.9v-11.2c0-1.1-0.1-1.8-0.4-2
				c-0.3-0.4-0.8-0.6-1.5-0.6h-0.7v-0.5h7.1c2.6,0,4.6,0.3,5.9,0.9c1.4,0.6,2.4,1.6,3.3,3c0.8,1.4,1.2,3,1.2,4.8
				c0,2.4-0.7,4.4-2.2,6.1c-1.7,1.8-4.2,2.7-7.5,2.7H938.6z M943.6,529.5c1.1,0.2,2,0.4,2.7,0.4c2,0,3.6-0.7,4.9-2.1
				c1.3-1.4,2-3.3,2-5.7c0-2.4-0.7-4.3-2-5.7c-1.3-1.4-3-2.1-5-2.1c-0.8,0-1.6,0.1-2.6,0.4V529.5z"/>
			<path fill="#2D2D2D" d="M962.6,514.3v6.9h3.8c1,0,1.7-0.1,2-0.4c0.4-0.4,0.7-1.1,0.7-2.1h0.5v6.1h-0.5c-0.1-0.8-0.2-1.4-0.4-1.6
				c-0.2-0.3-0.4-0.5-0.8-0.7c-0.4-0.2-0.9-0.3-1.6-0.3h-3.8v5.7c0,0.8,0,1.2,0.1,1.4c0.1,0.2,0.2,0.3,0.4,0.4
				c0.2,0.1,0.5,0.1,1,0.1h3c1,0,1.7-0.1,2.1-0.2c0.4-0.1,0.9-0.4,1.3-0.8c0.5-0.5,1.1-1.3,1.6-2.4h0.5l-1.5,4.4h-13.4v-0.5h0.6
				c0.4,0,0.8-0.1,1.2-0.3c0.3-0.1,0.5-0.3,0.6-0.6c0.1-0.3,0.1-0.8,0.1-1.7v-11.3c0-1.1-0.1-1.8-0.3-2c-0.3-0.3-0.8-0.5-1.5-0.5
				h-0.6v-0.5h13.4l0.2,3.8h-0.5c-0.2-0.9-0.4-1.5-0.6-1.9c-0.2-0.3-0.5-0.6-1-0.8c-0.3-0.1-0.9-0.2-1.8-0.2H962.6z"/>
			<path fill="#2D2D2D" d="M995.9,513l0.4,5.5h-0.4c-0.5-1.4-1-2.4-1.8-3.1c-1-1-2.4-1.5-4-1.5c-2.2,0-3.9,0.9-5.1,2.6
				c-1,1.5-1.5,3.2-1.5,5.3c0,1.7,0.3,3.2,1,4.5c0.6,1.4,1.5,2.4,2.5,3c1,0.6,2.1,1,3.2,1c0.6,0,1.3-0.1,1.9-0.2
				c0.6-0.2,1.2-0.4,1.7-0.7v-5c0-0.9-0.1-1.4-0.2-1.7c-0.1-0.3-0.3-0.5-0.6-0.6c-0.3-0.1-0.8-0.2-1.5-0.2v-0.5h6.7v0.5h-0.3
				c-0.7,0-1.1,0.2-1.4,0.7c-0.2,0.3-0.3,0.9-0.3,1.9v5.3c-1,0.5-2,0.9-2.9,1.2c-1,0.2-2,0.4-3.2,0.4c-3.4,0-5.9-1.1-7.7-3.2
				c-1.3-1.6-2-3.5-2-5.6c0-1.5,0.4-3,1.1-4.4c0.9-1.7,2.1-3,3.6-3.9c1.3-0.7,2.8-1.1,4.5-1.1c0.6,0,1.2,0.1,1.7,0.2
				c0.5,0.1,1.3,0.3,2.2,0.7c0.5,0.2,0.8,0.3,1,0.3c0.2,0,0.3-0.1,0.4-0.2c0.1-0.1,0.2-0.4,0.2-0.9H995.9z"/>
			<path fill="#2D2D2D" d="M1008.4,513c2.3,0,4.2,0.9,5.9,2.6c1.7,1.7,2.5,3.9,2.5,6.4c0,2.6-0.8,4.8-2.5,6.6
				c-1.7,1.7-3.7,2.6-6.1,2.6c-2.4,0-4.4-0.9-6-2.6c-1.6-1.7-2.4-3.9-2.4-6.6c0-2.8,0.9-5,2.8-6.8
				C1004.1,513.8,1006.1,513,1008.4,513z M1008.1,513.9c-1.6,0-2.8,0.6-3.7,1.7c-1.2,1.4-1.8,3.5-1.8,6.3c0,2.8,0.6,5,1.8,6.6
				c0.9,1.2,2.2,1.7,3.7,1.7c1.6,0,3-0.6,4.1-1.9c1.1-1.3,1.6-3.3,1.6-6c0-3-0.6-5.2-1.8-6.7
				C1011.1,514.5,1009.8,513.9,1008.1,513.9z"/>
			<path fill="#2D2D2D" d="M1032.8,526l0.4,0.1l-1.5,4.7h-13.5v-0.5h0.7c0.7,0,1.3-0.2,1.6-0.7c0.2-0.3,0.3-0.9,0.3-1.9v-11.2
				c0-1.1-0.1-1.8-0.4-2c-0.3-0.4-0.8-0.6-1.5-0.6h-0.7v-0.5h7.9v0.5c-0.9,0-1.6,0.1-1.9,0.3c-0.4,0.2-0.6,0.4-0.8,0.7
				s-0.2,0.9-0.2,2v10.9c0,0.7,0.1,1.2,0.2,1.5c0.1,0.2,0.3,0.3,0.5,0.4s0.9,0.1,2,0.1h1.3c1.3,0,2.3-0.1,2.8-0.3
				c0.5-0.2,1-0.5,1.5-1C1031.9,527.9,1032.4,527.1,1032.8,526z"/>
			<path fill="#2D2D2D" d="M1039.2,514.3v6.8h3.2c0.7,0,1.3-0.2,1.6-0.5c0.3-0.3,0.6-1,0.7-1.9h0.5v5.9h-0.5c0-0.7-0.1-1.2-0.3-1.5
				c-0.2-0.3-0.4-0.6-0.7-0.7c-0.3-0.2-0.7-0.2-1.3-0.2h-3.2v5.5c0,0.9,0.1,1.5,0.2,1.7c0.1,0.2,0.3,0.4,0.5,0.6
				c0.4,0.2,0.8,0.3,1.2,0.3h0.6v0.5h-7.5v-0.5h0.6c0.7,0,1.2-0.2,1.6-0.6c0.2-0.3,0.3-0.9,0.3-2v-11.2c0-0.9-0.1-1.5-0.2-1.7
				c-0.1-0.2-0.3-0.4-0.5-0.6c-0.4-0.2-0.8-0.3-1.2-0.3h-0.6v-0.5h13l0.2,3.8h-0.4c-0.2-0.8-0.5-1.4-0.8-1.8
				c-0.3-0.4-0.7-0.7-1.1-0.8c-0.4-0.2-1.1-0.3-2-0.3H1039.2z"/>
		</g>
		<line fill="#2F3030" stroke="#000000" stroke-width="4" stroke-miterlimit="10" x1="267" y1="142" x2="611" y2="142"/>
		<line fill="#2F3030" stroke="#000000" stroke-width="4" stroke-miterlimit="10" x1="281" y1="160" x2="402" y2="160"/>
		<line fill="#2F3030" stroke="#000000" stroke-width="4" stroke-miterlimit="10" x1="623" y1="543" x2="1057" y2="543"/>
		<line fill="#2F3030" stroke="#000000" stroke-width="4" stroke-miterlimit="10" x1="611" y1="583" x2="992" y2="583"/>
		<line fill="#2F3030" stroke="#000000" stroke-width="4" stroke-miterlimit="10" x1="592" y1="624" x2="840" y2="624"/>
		<line fill="#2F3030" stroke="#000000" stroke-width="4" stroke-miterlimit="10" x1="575" y1="669" x2="738" y2="669"/>
		<line fill="#2F3030" stroke="#000000" stroke-width="4" stroke-miterlimit="10" x1="552" y1="711" x2="715" y2="711"/>
	</g>
</g>
</svg>
